TITLE ""
FILE "1Q_t_2049-2057.mp3" MP3
  TRACK 01 AUDIO
    TITLE "1Q_t_2049-2057_01"
    INDEX 01 00:00:00
  TRACK 02 AUDIO
    TITLE "1Q_t_2049-2057_02"
    INDEX 01 00:00:10
  TRACK 03 AUDIO
    TITLE "1Q_t_2049-2057_03"
    INDEX 01 00:01:43
  TRACK 04 AUDIO
    TITLE "1Q_t_2049-2057_04"
    INDEX 01 00:01:55
  TRACK 05 AUDIO
    TITLE "1Q_t_2049-2057_05"
    INDEX 01 00:05:25
  TRACK 06 AUDIO
    TITLE "1Q_t_2049-2057_06"
    INDEX 01 00:05:33
  TRACK 07 AUDIO
    TITLE "1Q_t_2049-2057_07"
    INDEX 01 00:10:58
  TRACK 08 AUDIO
    TITLE "1Q_t_2049-2057_08"
    INDEX 01 00:11:32
  TRACK 09 AUDIO
    TITLE "1Q_t_2049-2057_09"
    INDEX 01 00:12:51
  TRACK 10 AUDIO
    TITLE "1Q_t_2049-2057_10"
    INDEX 01 00:12:61
  TRACK 11 AUDIO
    TITLE "1Q_t_2049-2057_11"
    INDEX 01 00:14:18
  TRACK 12 AUDIO
    TITLE "1Q_t_2049-2057_12"
    INDEX 01 00:14:30
  TRACK 13 AUDIO
    TITLE "1Q_t_2049-2057_13"
    INDEX 01 00:18:32
  TRACK 14 AUDIO
    TITLE "1Q_t_2049-2057_14"
    INDEX 01 00:19:06
  TRACK 15 AUDIO
    TITLE "1Q_t_2049-2057_15"
    INDEX 01 00:20:23
  TRACK 16 AUDIO
    TITLE "1Q_t_2049-2057_16"
    INDEX 01 00:20:37
  TRACK 17 AUDIO
    TITLE "1Q_t_2049-2057_17"
    INDEX 01 00:22:67
  TRACK 18 AUDIO
    TITLE "1Q_t_2049-2057_18"
    INDEX 01 00:22:75
  TRACK 19 AUDIO
    TITLE "1Q_t_2049-2057_19"
    INDEX 01 00:27:03
  TRACK 20 AUDIO
    TITLE "1Q_t_2049-2057_20"
    INDEX 01 00:27:52
  TRACK 21 AUDIO
    TITLE "1Q_t_2049-2057_21"
    INDEX 01 00:28:52
  TRACK 22 AUDIO
    TITLE "1Q_t_2049-2057_22"
    INDEX 01 00:28:61
  TRACK 23 AUDIO
    TITLE "1Q_t_2049-2057_23"
    INDEX 01 00:29:53
  TRACK 24 AUDIO
    TITLE "1Q_t_2049-2057_24"
    INDEX 01 00:29:61
  TRACK 25 AUDIO
    TITLE "1Q_t_2049-2057_25"
    INDEX 01 00:33:33
  TRACK 26 AUDIO
    TITLE "1Q_t_2049-2057_26"
    INDEX 01 00:34:05
  TRACK 27 AUDIO
    TITLE "1Q_t_2049-2057_27"
    INDEX 01 00:35:24
  TRACK 28 AUDIO
    TITLE "1Q_t_2049-2057_28"
    INDEX 01 00:35:34
  TRACK 29 AUDIO
    TITLE "1Q_t_2049-2057_29"
    INDEX 01 00:37:35
  TRACK 30 AUDIO
    TITLE "1Q_t_2049-2057_30"
    INDEX 01 00:37:43
  TRACK 31 AUDIO
    TITLE "1Q_t_2049-2057_31"
    INDEX 01 00:42:64
  TRACK 32 AUDIO
    TITLE "1Q_t_2049-2057_32"
    INDEX 01 00:43:36
  TRACK 33 AUDIO
    TITLE "1Q_t_2049-2057_33"
    INDEX 01 00:44:55
  TRACK 34 AUDIO
    TITLE "1Q_t_2049-2057_34"
    INDEX 01 00:44:62
  TRACK 35 AUDIO
    TITLE "1Q_t_2049-2057_35"
    INDEX 01 00:46:52
  TRACK 36 AUDIO
    TITLE "1Q_t_2049-2057_36"
    INDEX 01 00:46:59
  TRACK 37 AUDIO
    TITLE "1Q_t_2049-2057_37"
    INDEX 01 00:53:10
  TRACK 38 AUDIO
    TITLE "1Q_t_2049-2057_38"
    INDEX 01 00:53:61
  TRACK 39 AUDIO
    TITLE "1Q_t_2049-2057_39"
    INDEX 01 00:55:03
  TRACK 40 AUDIO
    TITLE "1Q_t_2049-2057_40"
    INDEX 01 00:55:11
  TRACK 41 AUDIO
    TITLE "1Q_t_2049-2057_41"
    INDEX 01 00:57:22
  TRACK 42 AUDIO
    TITLE "1Q_t_2049-2057_42"
    INDEX 01 00:57:30
  TRACK 43 AUDIO
    TITLE "1Q_t_2049-2057_43"
    INDEX 01 01:01:18
  TRACK 44 AUDIO
    TITLE "1Q_t_2049-2057_44"
    INDEX 01 01:01:65
  TRACK 45 AUDIO
    TITLE "1Q_t_2049-2057_45"
    INDEX 01 01:03:15
  TRACK 46 AUDIO
    TITLE "1Q_t_2049-2057_46"
    INDEX 01 01:03:62
  TRACK 47 AUDIO
    TITLE "1Q_t_2049-2057_47"
    INDEX 01 01:04:75
  TRACK 48 AUDIO
    TITLE "1Q_t_2049-2057_48"
    INDEX 01 01:05:10
  TRACK 49 AUDIO
    TITLE "1Q_t_2049-2057_49"
    INDEX 01 01:06:25
  TRACK 50 AUDIO
    TITLE "1Q_t_2049-2057_50"
    INDEX 01 01:06:33
  TRACK 51 AUDIO
    TITLE "1Q_t_2049-2057_51"
    INDEX 01 01:12:41
  TRACK 52 AUDIO
    TITLE "1Q_t_2049-2057_52"
    INDEX 01 01:13:13
  TRACK 53 AUDIO
    TITLE "1Q_t_2049-2057_53"
    INDEX 01 01:14:34
  TRACK 54 AUDIO
    TITLE "1Q_t_2049-2057_54"
    INDEX 01 01:14:46
  TRACK 55 AUDIO
    TITLE "1Q_t_2049-2057_55"
    INDEX 01 01:16:10
  TRACK 56 AUDIO
    TITLE "1Q_t_2049-2057_56"
    INDEX 01 01:16:19
  TRACK 57 AUDIO
    TITLE "1Q_t_2049-2057_57"
    INDEX 01 01:21:60
